<?xml version="1.0" standalone="no"?>
<!DOCTYPE svg PUBLIC "-//W3C//DTD SVG 20010904//EN"
 "http://www.w3.org/TR/2001/REC-SVG-20010904/DTD/svg10.dtd">
<svg version="1.0" xmlns="http://www.w3.org/2000/svg"
 width="1600.000000pt" height="1600.000000pt" viewBox="0 0 1600.000000 1600.000000"
 preserveAspectRatio="xMidYMid meet">

<g transform="translate(0.000000,1600.000000) scale(0.100000,-0.100000)"
fill="#000000" stroke="none">
<path d="M7770 15863 c-115 -6 -520 -43 -690 -64 -326 -39 -533 -77 -903 -163
-1076 -252 -2082 -748 -3018 -1491 -279 -220 -423 -350 -685 -616 -227 -231
-384 -409 -545 -619 -40 -52 -100 -130 -133 -174 -113 -146 -181 -243 -382
-549 -74 -112 -254 -427 -339 -591 -293 -564 -546 -1274 -680 -1906 -108 -515
-143 -774 -186 -1405 -30 -430 30 -1161 142 -1742 25 -133 131 -586 165 -708
268 -959 751 -1900 1378 -2685 372 -465 908 -998 1345 -1338 268 -208 510
-377 761 -529 775 -471 1631 -799 2550 -978 208 -40 373 -63 730 -99 668 -69
905 -69 1559 0 1045 110 1906 359 2786 805 470 238 983 566 1310 836 22 18 75
61 118 95 44 35 111 89 150 121 112 91 411 373 532 503 61 64 115 122 120 128
157 165 443 520 601 747 401 575 659 1048 908 1665 274 682 491 1632 547 2393
15 206 6 887 -15 1121 -64 705 -176 1242 -408 1950 -71 217 -236 619 -362 885
-163 342 -478 863 -707 1171 -231 308 -339 442 -540 664 -347 384 -702 703
-1174 1056 -781 585 -1766 1049 -2700 1274 -737 178 -1617 273 -2235 243z
m435 -1927 c141 -11 370 -79 520 -153 283 -141 488 -350 640 -653 126 -252
177 -500 155 -750 -30 -335 -134 -596 -330 -834 -318 -383 -856 -593 -1335
-521 -134 20 -199 38 -318 86 -298 120 -544 327 -729 615 -93 145 -160 338
-193 559 -18 123 -18 196 0 345 23 195 64 334 143 492 127 252 305 447 558
610 176 113 407 189 634 207 95 7 125 7 255 -3z m100 -3462 c227 -33 437 -125
630 -273 221 -170 389 -427 467 -716 l21 -80 2 -3010 c1 -1655 -2 -3064 -7
-3130 -15 -217 -82 -426 -186 -577 -110 -158 -297 -329 -464 -421 -332 -185
-761 -227 -1128 -111 -91 28 -276 117 -350 167 -93 64 -226 184 -299 273 -162
196 -242 407 -270 714 -13 142 -14 5143 -1 5670 9 391 18 474 60 600 71 212
157 351 319 510 234 233 487 359 776 389 134 14 319 12 430 -5z"/>
</g>
</svg>