<?xml version="1.0" standalone="no"?>
<!DOCTYPE svg PUBLIC "-//W3C//DTD SVG 20010904//EN"
 "http://www.w3.org/TR/2001/REC-SVG-20010904/DTD/svg10.dtd">
<svg version="1.0" xmlns="http://www.w3.org/2000/svg"
 width="300.000000pt" height="300.000000pt" viewBox="0 0 300.000000 300.000000"
 preserveAspectRatio="xMidYMid meet">
<metadata>
Created by potrace 1.10, written by Peter Selinger 2001-2011
</metadata>
<g transform="translate(0.000000,300.000000) scale(0.100000,-0.100000)"
fill="#000000" stroke="none">
<path d="M503 2298 c-44 -15 -41 -24 8 -32 108 -17 210 -105 325 -279 l46 -69
-46 -321 c-25 -177 -50 -360 -56 -406 -7 -47 -18 -97 -26 -113 -17 -33 -61
-58 -104 -58 -16 0 -30 -4 -30 -8 0 -5 67 -9 150 -8 82 1 150 3 150 5 0 2 -11
12 -25 23 -16 12 -25 30 -25 47 0 16 18 171 40 346 22 175 38 321 35 323 -17
17 -29 -39 -56 -244 -16 -126 -35 -282 -41 -346 l-12 -118 -28 0 c-31 0 -32 4
-18 46 5 16 21 110 34 209 14 99 37 263 51 365 34 241 34 268 5 316 -50 82
-153 205 -210 250 -33 26 -60 49 -60 52 0 15 141 -8 190 -32 138 -66 223 -167
369 -438 57 -106 134 -249 171 -318 51 -94 74 -127 93 -134 44 -16 42 -19 294
419 147 254 184 315 193 315 12 0 8 20 95 -475 42 -236 83 -457 91 -490 40
-158 105 -283 186 -357 l52 -48 -40 0 c-91 0 -252 117 -323 235 -56 93 -86
197 -131 450 -44 256 -55 292 -84 287 -11 -2 -15 1 -11 8 17 28 -32 -14 -52
-44 -29 -45 -286 -492 -312 -544 -12 -23 -26 -40 -30 -37 -5 2 -84 148 -176
322 -154 293 -203 373 -228 373 -5 0 -5 -5 1 -12 5 -7 42 -74 80 -148 196
-376 329 -622 337 -623 5 -1 13 15 17 35 11 52 44 117 208 398 77 133 140 246
140 251 0 5 8 9 18 9 15 0 22 -33 56 -233 21 -127 47 -266 57 -307 49 -190
163 -341 314 -416 79 -39 79 -39 202 -39 80 0 126 4 134 12 9 9 0 13 -37 18
-56 8 -120 34 -166 66 -56 41 -148 208 -177 324 -11 44 -65 334 -106 570 -55
321 -88 490 -95 499 -10 11 -4 22 -252 -405 -117 -201 -220 -377 -229 -389
l-15 -23 -20 39 c-33 65 -269 505 -309 574 -82 146 -174 239 -293 297 -72 36
-81 38 -181 40 -58 1 -121 -3 -138 -9z"/>
</g>
</svg>
